<?xml version="1.0" encoding="UTF-8"?>
<svg xmlns="http://www.w3.org/2000/svg" width="20.40" height="20.31" viewBox="0 0 20.40 20.31">
  <path d="M 10.00,10.00 L 10.00,10.00 L 10.00,10.00 L 10.00,10.00 L 10.00,10.00 L 10.00,10.00 L 10.01,10.00 L 10.01,10.01 L 10.01,10.01 L 10.01,10.01 L 10.02,10.01 L 10.02,10.02 L 10.03,10.02 L 10.03,10.02 L 10.03,10.03 L 10.04,10.03 L 10.04,10.03 L 10.05,10.04 L 10.06,10.04 L 10.06,10.05 L 10.07,10.05 L 10.08,10.06 L 10.08,10.06 L 10.09,10.07 L 10.10,10.08 L 10.11,10.08 L 10.12,10.09 L 10.13,10.10 L 10.14,10.10 L 10.15,10.11 L 10.16,10.12 L 10.17,10.13 L 10.18,10.14 L 10.19,10.14 L 10.20,10.15 L 10.21,10.16 L 10.23,10.17 L 10.24,10.18 L 10.25,10.19 L 10.26,10.20 L 10.28,10.21 L 10.29,10.22 L 10.31,10.23 L 10.32,10.25 L 10.34,10.26 L 10.35,10.27 L 10.37,10.28 L 10.38,10.29 L 10.40,10.31" stroke="black" stroke-width="2" fill="none" stroke-linecap="round" stroke-linejoin="round"/>
</svg>
