<?xml version="1.0" standalone="no"?>
<!DOCTYPE svg PUBLIC "-//W3C//DTD SVG 1.1//EN" "http://www.w3.org/Graphics/SVG/1.1/DTD/svg11.dtd">
<svg width="24.385701mm" height="22.991469999999993mm"
 viewBox="12.571119 183.425217 24.385701 22.991469999999993"
 xmlns="http://www.w3.org/2000/svg" version="1.1"
 xmlns:xlink="http://www.w3.org/1999/xlink">
<desc>Letter a_52 - manually separated</desc>

<g id="letter">
<path
style="fill:none;stroke:#000000;stroke-width:0.352778;stroke-opacity:1.000000;stroke-dasharray:none;stroke-dashoffset:0;stroke-linecap:round;stroke-linejoin:miter;stroke-miterlimit:4"
 d="M 25.369020 188.952728 L 25.369020 188.930420 Q 25.369020 188.908081 25.400883 188.756775 Q 25.432741 188.605499 25.294542 188.533325 Q 25.156343 188.461166 25.002317 188.447495 Q 24.848291 188.433823 24.687086 188.429520 Q 24.525883 188.425217 24.356646 188.441254 Q 24.187407 188.457321 24.047359 188.484924 Q 23.907307 188.512527 23.770573 188.557831 Q 23.633835 188.603149 23.480091 188.665222 Q 23.326345 188.727280 23.163048 188.792831 Q 22.999750 188.858398 22.830599 188.939850 Q 22.661448 189.021317 22.488695 189.105957 Q 22.315943 189.190613 22.140974 189.288193 Q 21.966007 189.385742 21.807808 189.485977 Q 21.649607 189.586212 21.493814 189.682373 Q 21.338020 189.778534 21.179325 189.872040 Q 21.020630 189.965561 20.872587 190.075562 Q 20.724546 190.185547 20.581984 190.297791 Q 20.439419 190.410034 20.300194 190.519272 Q 20.160971 190.628510 20.023802 190.748322 Q 19.886633 190.868149 19.761885 191.004578 Q 19.637136 191.140976 19.496607 191.293442 Q 19.356077 191.445923 19.219187 191.619568 Q 19.082298 191.793198 18.957750 191.985748 Q 18.833200 192.178253 18.709137 192.403885 Q 18.585073 192.629501 18.524935 192.749817 Q 18.464794 192.870117 18.406403 193.008026 Q 18.348013 193.145920 18.253109 193.405334 Q 18.158207 193.664780 18.114655 193.800171 Q 18.071100 193.935562 18.027565 194.070969 Q 17.984030 194.206406 17.951973 194.340500 Q 17.919916 194.474579 17.882353 194.623779 Q 17.844790 194.772949 17.797859 195.031631 Q 17.750929 195.290314 17.710159 195.569183 Q 17.669390 195.848038 17.639044 196.119827 Q 17.608698 196.391632 17.598246 196.530899 Q 17.587793 196.670181 17.579456 196.823395 Q 17.571119 196.976608 17.571642 197.271164 Q 17.572166 197.565704 17.587198 197.715561 Q 17.602230 197.865417 17.624384 198.027298 Q 17.646536 198.189178 17.661304 198.324585 Q 17.676069 198.459976 17.711798 198.614014 Q 17.747526 198.768082 17.781973 198.898438 Q 17.816418 199.028793 17.853745 199.163345 Q 17.891069 199.297913 17.941776 199.432831 Q 17.992483 199.567780 18.050737 199.689087 Q 18.108994 199.810394 18.224533 200.030899 Q 18.340073 200.251389 18.461763 200.435913 Q 18.583454 200.620438 18.728018 200.763245 Q 18.872580 200.906021 19.023258 201.022491 Q 19.173937 201.138977 19.323988 201.215546 Q 19.474041 201.292130 19.636150 201.339340 Q 19.798258 201.386581 19.977863 201.386368 Q 20.157467 201.386154 20.342514 201.340637 Q 20.527559 201.295135 20.710239 201.215805 Q 20.892920 201.136429 21.092129 201.036087 Q 21.291338 200.935760 21.481647 200.804382 Q 21.671957 200.673019 21.857861 200.523361 Q 22.043766 200.373688 22.208521 200.213058 Q 22.373276 200.052460 22.545839 199.872086 Q 22.718403 199.691711 22.877060 199.473831 Q 23.035721 199.255951 23.107464 199.138794 Q 23.179209 199.021637 23.257662 198.899231 Q 23.336119 198.776794 23.404718 198.652542 Q 23.473322 198.528275 23.549181 198.400513 Q 23.625038 198.272720 23.704025 198.142944 Q 23.783012 198.013153 23.852114 197.883484 Q 23.921217 197.753815 23.984880 197.623550 Q 24.048546 197.493301 24.121607 197.346359 Q 24.194666 197.199417 24.256788 197.074356 Q 24.318907 196.949280 24.377848 196.819260 Q 24.436789 196.689240 24.542963 196.463394 Q 24.649136 196.237549 24.749548 195.998550 Q 24.849958 195.759521 24.938395 195.529373 Q 25.026833 195.299194 25.103706 195.072937 Q 25.180580 194.846649 25.265308 194.586121 Q 25.350039 194.325592 25.417839 194.063904 Q 25.485638 193.802216 25.523727 193.665680 Q 25.561817 193.529144 25.621719 193.294022 Q 25.681618 193.058868 25.735598 192.838531 Q 25.789579 192.618225 25.828714 192.414230 Q 25.867849 192.210205 25.910208 192.041122 Q 25.952566 191.872025 25.977697 191.727859 Q 26.002827 191.583679 26.023584 191.404144 Q 26.044344 191.224609 26.054361 191.068695 Q 26.064379 190.912781 26.046301 190.767700 Q 26.028225 190.622620 25.993649 190.632721 Q 25.959072 190.642838 25.918251 190.771927 Q 25.877426 190.901016 25.826315 191.069351 Q 25.775206 191.237686 25.737576 191.389832 Q 25.699947 191.541946 25.659626 191.743591 Q 25.619303 191.945267 25.569685 192.199600 Q 25.520067 192.453949 25.502647 192.612579 Q 25.485228 192.771179 25.459923 192.933395 Q 25.434616 193.095596 25.416315 193.279587 Q 25.398014 193.463608 25.383986 193.642838 Q 25.369957 193.822067 25.358629 194.037186 Q 25.347301 194.252319 25.339361 194.430618 Q 25.331421 194.608917 25.337557 194.808990 Q 25.343695 195.009064 25.358498 195.181107 Q 25.373302 195.353165 25.396475 195.566666 Q 25.419645 195.780121 25.447445 195.974991 Q 25.475248 196.169876 25.507858 196.378738 Q 25.540472 196.587585 25.574413 196.765121 Q 25.608358 196.942657 25.658953 197.143051 Q 25.709551 197.343460 25.755945 197.532410 Q 25.802341 197.721344 25.862770 197.926788 Q 25.923201 198.132217 25.976519 198.324326 Q 26.029837 198.516464 26.080999 198.704361 Q 26.132158 198.892273 26.180115 199.059906 Q 26.228075 199.227509 26.286945 199.386459 Q 26.345814 199.545395 26.397470 199.681046 Q 26.449129 199.816681 26.511848 199.955582 Q 26.574568 200.094513 26.692471 200.310120 Q 26.810377 200.525742 26.933779 200.697800 Q 27.057180 200.869873 27.184668 200.992188 Q 27.312157 201.114517 27.460239 201.195770 Q 27.608322 201.277008 27.779291 201.327164 Q 27.950262 201.377289 28.141151 201.396988 Q 28.332043 201.416687 28.535336 201.382492 Q 28.738628 201.348312 28.961729 201.286774 Q 29.184828 201.225250 29.428228 201.133499 Q 29.671631 201.041763 29.803196 200.984467 Q 29.934761 200.927139 30.068159 200.862488 Q 30.201559 200.797821 30.459307 200.684479 Q 30.717056 200.571136 30.838661 200.507233 Q 30.960268 200.443298 31.087328 200.385193 Q 31.214388 200.327072 31.466028 200.199707 Q 31.717667 200.072372 31.837242 200.004333 L 31.956820 199.936264"
/>
</g>
</svg>