<?xml version="1.0" standalone="no"?>
<!DOCTYPE svg PUBLIC "-//W3C//DTD SVG 1.1//EN" "http://www.w3.org/Graphics/SVG/1.1/DTD/svg11.dtd">
<svg width="26.35225700000001mm" height="19.749423999999998mm"
 viewBox="112.525352 34.296185 26.35225700000001 19.749423999999998"
 xmlns="http://www.w3.org/2000/svg" version="1.1"
 xmlns:xlink="http://www.w3.org/1999/xlink">
<desc>Letter a_38 - manually separated</desc>

<g id="letter">
<path
style="fill:none;stroke:#000000;stroke-width:0.352778;stroke-opacity:1.000000;stroke-dasharray:none;stroke-dashoffset:0;stroke-linecap:round;stroke-linejoin:miter;stroke-miterlimit:4"
 d="M 131.225388 40.521748 L 131.203079 40.521748 Q 131.180771 40.521748 131.035019 40.521748 Q 130.889282 40.521748 130.718246 40.521748 Q 130.547195 40.521748 130.397461 40.539875 Q 130.247726 40.558006 130.066162 40.571739 Q 129.884598 40.585468 129.740829 40.590378 Q 129.597076 40.595291 129.458038 40.598312 Q 129.319016 40.601337 129.163864 40.603195 Q 129.008713 40.605057 128.862671 40.595039 Q 128.716644 40.585030 128.557175 40.561848 Q 128.397705 40.538673 128.237869 40.518402 Q 128.078018 40.498131 127.922340 40.474350 Q 127.766640 40.450569 127.619194 40.430073 Q 127.471741 40.409576 127.281532 40.374287 Q 127.091331 40.338997 126.906250 40.316982 Q 126.721184 40.294964 126.563400 40.242348 Q 126.405602 40.189732 126.294746 40.072693 Q 126.183899 39.955654 126.130692 39.811668 Q 126.077492 39.667679 125.987701 39.553757 Q 125.897926 39.439835 125.762199 39.396439 Q 125.626465 39.353043 125.427475 39.332123 Q 125.228493 39.311199 125.041077 39.303692 Q 124.853653 39.296185 124.617134 39.320881 Q 124.380630 39.345573 124.242729 39.368542 Q 124.104828 39.391514 123.955421 39.419834 Q 123.806023 39.448147 123.630592 39.493763 Q 123.455170 39.539379 123.297859 39.581718 Q 123.140556 39.624058 122.955544 39.681736 Q 122.770523 39.739418 122.606705 39.802647 Q 122.442902 39.865875 122.253281 39.938313 Q 122.063660 40.010754 121.880501 40.086693 Q 121.697342 40.162628 121.512459 40.255516 Q 121.327568 40.348400 121.162384 40.435734 Q 120.997200 40.523067 120.822426 40.626003 Q 120.647652 40.728943 120.489716 40.823738 Q 120.331795 40.918533 120.178482 41.025051 Q 120.025177 41.131565 119.876671 41.244293 Q 119.728165 41.357021 119.598076 41.472572 Q 119.467979 41.588123 119.348076 41.707085 Q 119.228188 41.826050 119.116028 41.947872 Q 119.003883 42.069691 118.912552 42.178173 Q 118.821228 42.286655 118.725174 42.418564 Q 118.629120 42.550472 118.535553 42.679974 Q 118.441986 42.809471 118.362175 42.938705 Q 118.282372 43.067936 118.210701 43.197437 Q 118.139030 43.326939 118.072273 43.471577 Q 118.005524 43.616219 117.946007 43.740288 Q 117.886497 43.864361 117.840706 44.006992 Q 117.794922 44.149620 117.748001 44.287106 Q 117.701096 44.424591 117.665970 44.575436 Q 117.630829 44.726276 117.603889 44.869194 Q 117.576942 45.012104 117.555634 45.167755 Q 117.534340 45.323395 117.529839 45.469555 Q 117.525352 45.615711 117.543480 45.774399 Q 117.561615 45.933083 117.583824 46.081951 Q 117.606018 46.230820 117.646126 46.392281 Q 117.686226 46.553749 117.736977 46.705231 Q 117.787720 46.856712 117.859795 47.005905 Q 117.931862 47.155102 118.004158 47.285130 Q 118.076447 47.415169 118.166473 47.551083 Q 118.256500 47.686996 118.342346 47.807159 Q 118.428192 47.927322 118.540764 48.043537 Q 118.653320 48.159748 118.766235 48.255569 Q 118.879143 48.351387 119.010590 48.437302 Q 119.142036 48.523205 119.390495 48.646652 Q 119.638954 48.770100 119.784180 48.816307 Q 119.929413 48.862514 120.083786 48.898899 Q 120.238159 48.935276 120.399261 48.963486 Q 120.560371 48.991692 120.743095 49.014133 Q 120.925812 49.036575 121.087364 49.041092 Q 121.248917 49.045609 121.453819 49.026302 Q 121.658714 49.007004 121.849304 48.971054 Q 122.039902 48.935101 122.228653 48.886185 Q 122.417412 48.837269 122.621529 48.776966 Q 122.825653 48.716656 123.039291 48.634510 Q 123.252930 48.552364 123.435638 48.460674 Q 123.618347 48.368980 123.826080 48.247959 Q 124.033813 48.126945 124.227806 48.006737 Q 124.421799 47.886524 124.618904 47.731514 Q 124.815994 47.576500 124.986130 47.437630 Q 125.156250 47.298756 125.339226 47.126862 Q 125.522202 46.954967 125.682045 46.804535 Q 125.841888 46.654102 126.017113 46.472702 Q 126.192329 46.291298 126.350128 46.117691 Q 126.507912 45.944084 126.640266 45.789509 Q 126.772636 45.634930 126.894905 45.472385 Q 127.017159 45.309849 127.130760 45.144375 Q 127.244362 44.978905 127.333603 44.844070 Q 127.422844 44.709240 127.503693 44.557938 Q 127.584557 44.406639 127.655304 44.264610 Q 127.726036 44.122585 127.817001 43.870770 Q 127.907990 43.618954 127.962799 43.374344 Q 128.017609 43.129734 128.036865 42.992882 Q 128.056122 42.856026 128.070862 42.623684 Q 128.085587 42.391338 128.070663 42.168255 Q 128.055740 41.945168 128.018051 41.751495 Q 127.980370 41.557819 127.934151 41.380054 Q 127.887932 41.202286 127.842178 41.059361 Q 127.796417 40.916428 127.724831 40.749321 Q 127.653221 40.582214 127.609619 40.446098 Q 127.566017 40.309990 127.565849 40.311356 Q 127.565674 40.312721 127.565758 40.454895 Q 127.565849 40.597069 127.565865 40.769226 Q 127.565887 40.941387 127.565903 41.101658 Q 127.565910 41.261929 127.565926 41.488197 Q 127.565926 41.714470 127.565926 41.999779 Q 127.565926 42.285084 127.565926 42.463299 Q 127.565933 42.641510 127.565933 42.834820 Q 127.565933 43.028130 127.565933 43.231789 Q 127.565933 43.435448 127.565933 43.646072 Q 127.565933 43.856693 127.565933 44.053276 Q 127.565933 44.249859 127.578583 44.459087 Q 127.591240 44.668316 127.598518 44.845879 Q 127.605812 45.023441 127.624367 45.222778 Q 127.642929 45.422115 127.667259 45.611046 Q 127.691589 45.799976 127.733269 45.987255 Q 127.774956 46.174530 127.813255 46.325729 Q 127.851562 46.476933 127.903694 46.627602 Q 127.955811 46.778278 128.014725 46.909496 Q 128.073654 47.040722 128.140152 47.176060 Q 128.206650 47.311401 128.361847 47.525799 Q 128.517059 47.740196 128.696426 47.909706 Q 128.875809 48.079208 129.070801 48.198795 Q 129.265793 48.318386 129.471695 48.398029 Q 129.677597 48.477676 129.890137 48.526829 Q 130.102676 48.575985 130.331070 48.595100 Q 130.559479 48.614216 130.811951 48.590538 Q 131.064423 48.566856 131.194550 48.533096 Q 131.324692 48.499332 131.471451 48.452183 Q 131.618195 48.405033 131.745148 48.349590 Q 131.872101 48.294151 132.019348 48.228970 Q 132.166595 48.163788 132.307770 48.093468 Q 132.448929 48.023144 132.590820 47.935501 Q 132.732712 47.847858 132.871902 47.762104 Q 133.011093 47.676350 133.150955 47.576321 Q 133.290817 47.476295 133.428101 47.381443 Q 133.565399 47.286583 133.721512 47.162937 L 133.877609 47.039295"
/>
</g>
</svg>