<?xml version="1.0" standalone="no"?>
<!DOCTYPE svg PUBLIC "-//W3C//DTD SVG 1.1//EN" "http://www.w3.org/Graphics/SVG/1.1/DTD/svg11.dtd">
<svg width="22.002071mm" height="19.68109100000001mm"
 viewBox="32.092289 101.405373 22.002071 19.68109100000001"
 xmlns="http://www.w3.org/2000/svg" version="1.1"
 xmlns:xlink="http://www.w3.org/1999/xlink">
<desc>Letter a_20 - manually separated</desc>

<g id="letter">
<path
style="fill:none;stroke:#000000;stroke-width:0.352778;stroke-opacity:1.000000;stroke-dasharray:none;stroke-dashoffset:0;stroke-linecap:round;stroke-linejoin:miter;stroke-miterlimit:4"
 d="M 43.461365 107.038300 L 43.461365 107.019943 Q 43.461365 107.001587 43.442429 106.882935 Q 43.423492 106.764282 43.307735 106.706619 Q 43.191982 106.648972 43.041328 106.601936 Q 42.890671 106.554901 42.768894 106.525711 Q 42.647118 106.496529 42.515697 106.473755 Q 42.384281 106.450996 42.232021 106.436874 Q 42.079758 106.422760 41.915443 106.414070 Q 41.751133 106.405373 41.579422 106.409203 Q 41.407711 106.413025 41.246365 106.429375 Q 41.085011 106.445732 40.914356 106.475647 Q 40.743706 106.505569 40.582989 106.547417 Q 40.422268 106.589272 40.261177 106.652321 Q 40.100086 106.715378 39.950077 106.787224 Q 39.800064 106.859077 39.651421 106.931664 Q 39.502777 107.004250 39.364010 107.077141 Q 39.225243 107.150047 39.097370 107.223152 Q 38.969501 107.296249 38.848457 107.369484 Q 38.727413 107.442696 38.610573 107.515991 Q 38.493732 107.589287 38.394390 107.662628 Q 38.295048 107.735962 38.205700 107.809334 Q 38.116352 107.882706 38.033134 107.956093 Q 37.949917 108.029488 37.846596 108.148758 Q 37.743279 108.268036 37.675362 108.361084 Q 37.607445 108.454140 37.546566 108.568665 Q 37.485691 108.683189 37.424812 108.804428 Q 37.363934 108.925674 37.322441 109.056610 Q 37.280952 109.187553 37.240410 109.330345 Q 37.199871 109.473129 37.175694 109.641701 Q 37.151516 109.810280 37.136662 109.968803 Q 37.121807 110.127342 37.112671 110.301979 Q 37.103535 110.476608 37.097912 110.664001 Q 37.092289 110.851402 37.098003 111.036407 Q 37.103722 111.221413 37.121239 111.405815 Q 37.138756 111.590240 37.163876 111.785027 Q 37.188995 111.979813 37.233589 112.169174 Q 37.278187 112.358536 37.333828 112.550903 Q 37.389469 112.743256 37.446266 112.932404 Q 37.503063 113.121559 37.571808 113.308395 Q 37.640553 113.495224 37.721794 113.699028 Q 37.803036 113.902817 37.895199 114.097237 Q 37.987358 114.291656 38.084702 114.454254 Q 38.182041 114.616844 38.308521 114.765350 Q 38.435005 114.913841 38.574299 115.047874 Q 38.713589 115.181915 38.865448 115.301262 Q 39.017303 115.420616 39.171501 115.511749 Q 39.325691 115.602882 39.477222 115.688126 Q 39.628754 115.773369 39.778481 115.839172 Q 39.928207 115.904976 40.076817 115.950394 Q 40.225430 115.995804 40.382530 116.023865 Q 40.539635 116.051926 40.691868 116.069199 Q 40.844105 116.086464 40.999973 116.072998 Q 41.155842 116.059540 41.308376 116.038033 Q 41.460907 116.016518 41.611248 115.965088 Q 41.761593 115.913658 41.910583 115.848938 Q 42.059578 115.784203 42.192825 115.691917 Q 42.326073 115.599632 42.465313 115.492195 Q 42.604553 115.384773 42.722645 115.256599 Q 42.840736 115.128426 42.956657 114.978020 Q 43.072575 114.827606 43.171715 114.654633 Q 43.270851 114.481667 43.360878 114.294449 Q 43.450897 114.107216 43.493721 114.004433 Q 43.536541 113.901665 43.578144 113.796684 Q 43.619747 113.691704 43.685226 113.467285 Q 43.750702 113.242874 43.803802 113.034134 Q 43.856903 112.825394 43.904350 112.598434 Q 43.951801 112.371475 43.984859 112.161392 Q 44.017918 111.951294 44.053024 111.753235 Q 44.088135 111.555176 44.109047 111.346306 Q 44.129963 111.137436 44.142593 110.941109 Q 44.155220 110.744781 44.163052 110.536743 Q 44.170883 110.328697 44.175739 110.103012 Q 44.180599 109.877319 44.183495 109.673218 Q 44.186390 109.469124 44.188141 109.284653 Q 44.189892 109.100166 44.190971 108.924049 Q 44.192051 108.747925 44.177807 108.597832 Q 44.163559 108.447731 44.140652 108.313026 Q 44.117741 108.178337 44.095257 108.062271 Q 44.072777 107.946213 44.047649 107.800636 Q 44.022530 107.655060 43.990654 107.547462 Q 43.958786 107.439865 43.949310 107.451111 Q 43.939835 107.462334 43.960037 107.580063 Q 43.980236 107.697777 43.997841 107.836723 Q 44.015446 107.975670 44.031017 108.091644 Q 44.046589 108.207626 44.060989 108.350388 Q 44.075394 108.493134 44.084373 108.675690 Q 44.093357 108.858238 44.098927 109.056030 Q 44.104496 109.253830 44.123253 109.479561 Q 44.142010 109.705276 44.147987 109.820023 Q 44.153965 109.934776 44.158691 110.060875 Q 44.163418 110.186989 44.179325 110.416885 Q 44.195229 110.646774 44.209476 110.859924 Q 44.223724 111.073051 44.247440 111.272820 Q 44.271156 111.472588 44.294041 111.655914 Q 44.316921 111.839226 44.344982 112.008720 Q 44.373051 112.178223 44.395260 112.338997 Q 44.417473 112.499779 44.455349 112.631096 Q 44.493229 112.762421 44.529770 112.886475 Q 44.566307 113.010536 44.617798 113.123520 Q 44.669292 113.236511 44.729240 113.339066 Q 44.789185 113.441620 44.869228 113.523903 Q 44.949268 113.606201 45.063831 113.702209 Q 45.178391 113.798225 45.305546 113.868523 Q 45.432709 113.938812 45.564327 113.996574 Q 45.695946 114.054344 45.826138 114.096458 Q 45.956329 114.138573 46.105061 114.162994 Q 46.253792 114.187424 46.406517 114.190018 Q 46.559242 114.192612 46.722950 114.169235 Q 46.886658 114.145851 46.995152 114.110237 Q 47.103645 114.074638 47.227680 114.039520 Q 47.351711 114.004402 47.469627 113.953789 Q 47.587536 113.903168 47.702427 113.843765 Q 47.817322 113.784355 47.936115 113.719559 Q 48.054909 113.654755 48.164776 113.586647 Q 48.274643 113.518532 48.375290 113.463295 Q 48.475937 113.408058 48.575405 113.345039 Q 48.674873 113.282036 48.763401 113.215012 Q 48.851933 113.147995 48.973148 113.058067 L 49.094360 112.968124"
/>
</g>
</svg>