<?xml version="1.0" encoding="UTF-8"?>
<svg xmlns="http://www.w3.org/2000/svg" width="3746.34" height="3329.83" viewBox="0 0 3746.34 3329.83">
  <path d="M 39.34,3319.83 L 39.34,3319.83 L 39.34,3319.83 L 39.34,3319.83 L 39.34,3319.83 L 39.34,3319.83 L 39.34,3319.83 L 39.34,3319.83 L 39.34,3319.83 L 39.34,3319.83 L 39.34,3319.83 L 39.34,3319.83 L 39.34,3319.83 L 39.34,3319.83 L 39.34,3319.83 L 39.34,3319.83 L 39.34,3319.83 L 39.34,3319.83 L 39.34,3319.83 L 39.34,3319.83 L 39.34,3319.83 L 39.34,3319.83 L 39.34,3319.83 L 39.34,3319.83 L 39.34,3319.83 L 39.34,3319.83 L 39.34,3319.83 L 39.34,3319.83 L 39.34,3319.83 L 39.34,3319.83 L 39.34,3319.83 L 39.34,3319.83 L 39.34,3319.83 L 39.34,3319.83 L 39.34,3319.83 L 39.34,3319.83 L 39.34,3319.83 L 39.34,3319.83 L 39.34,3319.83 L 39.34,3319.83 L 39.34,3319.83 L 39.34,3319.83 L 39.34,3319.83 L 39.34,3319.83 L 39.34,3319.83 L 39.34,3319.83 L 39.34,3319.83 L 39.34,3319.83 L 39.34,3319.83 L 39.34,3319.83 L 39.34,3319.83 L 39.34,3319.83 L 39.34,3319.83 L 39.34,3319.83 L 39.34,3319.83 L 39.34,3319.83 L 39.34,3319.83 L 39.34,3319.83 L 39.34,3319.83 L 39.34,3319.83 L 39.34,3319.83 L 39.34,3319.83 L 39.34,3319.83 L 39.34,3319.83 L 39.34,3319.83 L 39.34,3319.83 L 39.34,3319.83 L 39.34,3319.83 L 39.34,3319.83 L 39.34,3319.83 L 39.34,3319.83 L 39.34,3319.83 L 39.34,3319.83 L 39.34,3319.83 L 39.34,3319.83 L 39.34,3319.83 L 39.34,3319.83 L 39.34,3319.83 L 39.34,3319.83 L 39.34,3319.83 L 39.34,3319.83 L 39.34,3319.83 L 39.34,3319.83 L 39.34,3319.83 L 39.34,3319.83 L 39.34,3319.83 L 39.34,3319.83 L 39.34,3319.83 L 39.34,3319.83 L 39.34,3319.83 L 39.34,3319.83 L 39.34,3319.83 L 39.34,3319.83 L 39.34,3319.83 L 39.34,3319.83 L 39.34,3319.83 L 39.34,3319.83 L 39.34,3319.83 L 39.34,3319.83 L 39.34,3319.83 L 39.34,3319.83 L 39.34,3319.83 L 39.34,3319.83 L 39.34,3319.83 L 39.34,3319.83 L 39.34,3319.83 L 39.34,3319.83 L 39.34,3319.83 L 39.34,3319.83 L 39.34,3319.83 L 39.34,3319.83 L 39.34,3319.83 L 39.34,3319.83 L 39.34,3319.83 L 39.34,3319.83 L 39.34,3319.83 L 39.34,3319.83 L 39.34,3319.83 L 39.34,3319.83 L 39.34,3319.83 L 39.34,3319.83 L 39.34,3319.83 L 39.34,3319.83 L 39.34,3319.83 L 39.34,3319.83 L 39.34,3319.83 L 39.34,3319.83 L 39.34,3319.83 L 39.34,3319.83 L 39.34,3319.83 L 39.34,3319.83 L 39.34,3319.83 L 39.34,3319.83 L 39.34,3319.83 L 39.34,3319.83 L 39.34,3319.83 L 39.34,3319.83 L 39.34,3319.83 L 39.34,3319.83 L 39.34,3319.83 L 39.34,3319.83 L 39.34,3319.83 L 39.34,3319.83 L 39.34,3319.83 L 39.34,3319.83 L 39.34,3319.83 L 39.34,3319.83 L 39.34,3319.83 L 39.34,3319.83 L 39.34,3319.83 L 39.34,3319.83 L 39.34,3319.83 L 39.34,3319.83 L 39.34,3319.83 L 39.34,3319.83 L 39.34,3319.83 L 39.34,3319.83 L 39.34,3319.83 L 39.34,3319.83 L 39.34,3319.83 L 39.34,3319.83 L 39.34,3319.83 L 39.34,3319.83 L 39.34,3319.83 L 39.34,3319.83 L 39.34,3319.83 L 39.34,3319.83 L 39.34,3319.83 L 39.34,3319.83 L 39.34,3319.83 L 39.34,3319.83 L 39.34,3319.83 L 39.34,3319.83 L 39.34,3319.83 L 39.34,3319.83 L 39.34,3319.83 L 39.34,3319.83 L 39.34,3319.83 L 39.34,3319.83 L 39.34,3319.83 L 39.34,3319.83 L 39.34,3319.83 L 39.34,3319.83 L 39.34,3319.83 L 39.34,3319.83 L 39.34,3319.83 L 39.34,3319.83 L 39.34,3319.83 L 39.34,3319.83 L 39.34,3319.83 L 39.34,3319.83 L 39.34,3319.83 L 39.34,3319.83 L 39.34,3319.83 L 39.34,3319.83 L 39.34,3319.83 L 39.34,3319.83 L 39.34,3319.83 L 39.34,3319.83 L 39.34,3319.83 L 39.34,3319.83 L 39.34,3319.83 L 39.34,3319.83 L 39.34,3319.83 L 39.34,3319.83 L 39.32,3319.78 L 39.29,3319.68 L 39.24,3319.57 L 39.18,3319.46 L 39.10,3319.35 L 39.01,3319.24 L 38.91,3319.12 L 38.78,3319.00 L 38.63,3318.88 L 38.46,3318.75 L 38.27,3318.62 L 38.05,3318.48 L 37.80,3318.34 L 37.53,3318.20 L 37.22,3318.05 L 36.89,3317.89 L 36.53,3317.73 L 36.13,3317.56 L 35.71,3317.38 L 35.25,3317.19 L 34.77,3317.00 L 34.26,3316.81 L 33.72,3316.60 L 33.15,3316.39 L 32.56,3316.17 L 31.94,3315.94 L 31.30,3315.71 L 30.65,3315.46 L 29.97,3315.21 L 29.28,3314.96 L 28.58,3314.70 L 27.86,3314.43 L 27.13,3314.15 L 26.40,3313.87 L 25.65,3313.58 L 24.90,3313.28 L 24.15,3312.98 L 23.77,3312.83 L 23.77,3312.83 L 23.77,3312.83 L 23.77,3312.83 L 23.77,3312.83 L 23.77,3312.83 L 23.77,3312.83 L 23.77,3312.83 L 23.39,3312.64 L 22.63,3312.27 L 21.87,3311.90 L 21.12,3311.52 L 20.38,3311.13 L 19.64,3310.74 L 18.91,3310.34 L 18.20,3309.94 L 17.50,3309.54 L 16.81,3309.13 L 16.14,3308.73 L 15.50,3308.32 L 14.88,3307.92 L 14.29,3307.51 L 13.72,3307.11 L 13.19,3306.72 L 12.70,3306.33 L 12.24,3305.95 L 11.82,3305.57 L 11.45,3305.21 L 11.11,3304.85 L 10.82,3304.50 L 10.58,3304.17 L 10.37,3303.84 L 10.22,3303.53 L 10.10,3303.23 L 10.03,3302.95 L 10.00,3302.67 L 10.01,3302.41 L 10.06,3302.17 L 10.14,3301.94 L 10.26,3301.72 L 10.41,3301.51 L 10.58,3301.32 L 10.79,3301.15 L 11.01,3300.99 L 11.26,3300.84 L 11.52,3300.71 L 11.79,3300.60 L 12.08,3300.51 L 12.37,3300.43 L 12.67,3300.37 L 12.98,3300.33 L 13.28,3300.31 L 13.58,3300.31 L 13.88,3300.33 L 14.17,3300.37 L 14.45,3300.43 L 14.73,3300.51 L 15.00,3300.61 L 15.26,3300.73 L 15.51,3300.86 L 15.75,3301.02 L 15.99,3301.19 L 16.22,3301.37 L 16.44,3301.58 L 16.67,3301.79 L 16.89,3302.01 L 17.12,3302.25 L 17.35,3302.49 L 17.59,3302.74 L 17.84,3302.99 L 18.11,3303.24 L 18.39,3303.50 L 18.70,3303.75 L 19.02,3304.01 L 19.37,3304.26 L 19.75,3304.50 L 20.16,3304.74 L 20.59,3304.98 L 21.06,3305.21 L 21.56,3305.43 L 22.10,3305.64 L 22.67,3305.85 L 23.28,3306.06 L 23.92,3306.25 L 24.60,3306.44 L 25.32,3306.62 L 26.07,3306.80 L 26.85,3306.98 L 27.68,3307.15 L 28.53,3307.32 L 29.42,3307.48 L 30.35,3307.65 L 31.32,3307.81 L 32.31,3307.97 L 33.35,3308.13 L 34.42,3308.28 L 35.52,3308.44 L 36.66,3308.60 L 37.84,3308.75 L 39.06,3308.91 L 40.31,3309.07 L 41.60,3309.22 L 42.93,3309.38 L 44.30,3309.53 L 45.71,3309.68 L 47.16,3309.84 L 48.66,3309.99 L 50.19,3310.14 L 51.76,3310.29 L 53.38,3310.44 L 55.04,3310.59 L 56.73,3310.74 L 58.48,3310.88 L 60.26,3311.03 L 62.08,3311.17 L 63.95,3311.30 L 65.86,3311.44 L 67.81,3311.57 L 69.79,3311.69 L 71.82,3311.81 L 73.88,3311.93 L 75.99,3312.03 L 78.13,3312.13 L 80.30,3312.22 L 82.51,3312.30 L 84.76,3312.37 L 87.04,3312.43 L 89.35,3312.49 L 91.70,3312.53 L 94.07,3312.56 L 96.48,3312.57 L 98.92,3312.58 L 101.39,3312.58 L 103.89,3312.56 L 106.43,3312.54 L 109.00,3312.50 L 111.60,3312.45 L 114.23,3312.39 L 116.90,3312.32 L 119.61,3312.23 L 122.36,3312.13 L 125.14,3312.02 L 127.98,3311.90 L 130.85,3311.75 L 133.78,3311.60 L 136.75,3311.42 L 139.77,3311.23 L 142.85,3311.01 L 145.99,3310.78 L 149.18,3310.52 L 152.44,3310.24 L 155.75,3309.93 L 159.13,3309.61 L 162.58,3309.25 L 166.08,3308.87 L 169.66,3308.47 L 173.29,3308.04 L 177.00,3307.59 L 180.76,3307.12 L 184.59,3306.62 L 188.48,3306.10 L 192.43,3305.56 L 196.43,3305.01 L 200.48,3304.43 L 204.58,3303.85 L 208.73,3303.24 L 212.91,3302.63 L 217.13,3302.01 L 221.39,3301.37 L 225.67,3300.73 L 229.97,3300.09 L 234.29,3299.44 L 238.62,3298.79 L 242.96,3298.13 L 247.30,3297.47 L 251.64,3296.81 L 255.98,3296.15 L 260.32,3295.50 L 264.64,3294.84 L 268.96,3294.18 L 273.26,3293.52 L 277.55,3292.86 L 281.82,3292.20 L 286.08,3291.55 L 290.33,3290.89 L 294.56,3290.23 L 298.78,3289.57 L 303.00,3288.90 L 307.20,3288.24 L 311.39,3287.57 L 315.58,3286.89 L 319.76,3286.22 L 323.93,3285.53 L 328.10,3284.84 L 332.27,3284.15 L 336.42,3283.44 L 340.57,3282.73 L 344.71,3282.00 L 348.83,3281.26 L 352.95,3280.52 L 357.04,3279.75 L 361.11,3278.97 L 365.16,3278.17 L 369.18,3277.36 L 373.17,3276.52 L 377.11,3275.66 L 381.02,3274.77 L 384.88,3273.86 L 388.69,3272.92 L 392.45,3271.94 L 396.15,3270.94 L 399.79,3269.91 L 403.36,3268.84 L 406.87,3267.73 L 410.31,3266.59 L 413.68,3265.41 L 416.98,3264.19 L 420.20,3262.93 L 423.36,3261.63 L 426.44,3260.29 L 429.44,3258.91 L 432.38,3257.50 L 435.24,3256.04 L 438.04,3254.54 L 440.77,3253.01 L 443.43,3251.44 L 446.03,3249.83 L 448.56,3248.18 L 451.04,3246.49 L 453.46,3244.77 L 455.83,3243.02 L 458.15,3241.22 L 460.42,3239.39 L 462.65,3237.53 L 464.84,3235.62 L 467.00,3233.68 L 469.11,3231.71 L 471.20,3229.69 L 473.27,3227.64 L 475.31,3225.55 L 477.32,3223.41 L 479.32,3221.24 L 481.31,3219.03 L 483.28,3216.77 L 485.23,3214.47 L 487.18,3212.12 L 489.12,3209.74 L 491.05,3207.30 L 492.98,3204.82 L 494.89,3202.29 L 496.80,3199.72 L 498.70,3197.09 L 500.59,3194.42 L 502.47,3191.70 L 504.34,3188.93 L 506.19,3186.11 L 508.02,3183.24 L 509.84,3180.31 L 511.63,3177.34 L 513.40,3174.32 L 515.13,3171.25 L 516.84,3168.12 L 518.52,3164.95 L 520.17,3161.73 L 521.78,3158.46 L 523.35,3155.14 L 524.89,3151.78 L 526.38,3148.37 L 527.85,3144.92 L 529.27,3141.42 L 530.66,3137.88 L 532.02,3134.30 L 533.34,3130.68 L 534.64,3127.03 L 535.91,3123.34 L 537.15,3119.61 L 538.38,3115.86 L 539.58,3112.07 L 540.78,3108.26 L 541.96,3104.42 L 543.14,3100.56 L 544.32,3096.67 L 545.50,3092.77 L 546.69,3088.85 L 547.89,3084.91 L 549.10,3080.96 L 550.34,3076.99 L 551.60,3073.01 L 552.89,3069.03 L 554.22,3065.04 L 555.58,3061.04 L 556.98,3057.04 L 558.43,3053.04 L 559.92,3049.03 L 561.46,3045.03 L 563.05,3041.03 L 564.69,3037.04 L 566.39,3033.05 L 568.15,3029.08 L 569.96,3025.11 L 571.83,3021.16 L 573.76,3017.22 L 575.75,3013.29 L 577.79,3009.38 L 579.88,3005.49 L 582.03,3001.61 L 584.23,2997.76 L 586.48,2993.92 L 588.78,2990.11 L 591.13,2986.31 L 593.52,2982.54 L 595.95,2978.79 L 598.42,2975.06 L 600.93,2971.35 L 603.48,2967.66 L 606.07,2964.00 L 608.69,2960.35 L 611.34,2956.73 L 614.03,2953.12 L 616.75,2949.54 L 619.50,2945.98 L 622.29,2942.45 L 625.12,2938.93 L 627.98,2935.44 L 630.88,2931.97 L 633.82,2928.53 L 636.80,2925.11 L 639.82,2921.72 L 642.89,2918.35 L 646.01,2915.01 L 649.17,2911.70 L 652.39,2908.42 L 655.65,2905.17 L 658.97,2901.94 L 662.34,2898.75 L 665.77,2895.58 L 669.24,2892.45 L 672.77,2889.34 L 676.35,2886.25 L 679.98,2883.20 L 683.66,2880.16 L 687.38,2877.15 L 691.14,2874.16 L 694.94,2871.19 L 698.78,2868.23 L 702.65,2865.28 L 706.56,2862.35 L 710.49,2859.42 L 714.45,2856.50 L 718.42,2853.58 L 722.42,2850.67 L 726.43,2847.75 L 730.46,2844.83 L 734.50,2841.90 L 738.55,2838.97 L 742.60,2836.02 L 746.66,2833.07 L 750.73,2830.11 L 754.80,2827.13 L 758.88,2824.14 L 762.95,2821.14 L 767.04,2818.12 L 771.12,2815.09 L 775.21,2812.05 L 779.30,2808.99 L 783.39,2805.92 L 787.49,2802.84 L 791.59,2799.74 L 795.69,2796.64 L 799.80,2793.51 L 803.92,2790.38 L 808.04,2787.24 L 812.17,2784.08 L 816.31,2780.92 L 820.45,2777.74 L 824.60,2774.56 L 828.76,2771.36 L 832.93,2768.15 L 837.11,2764.94 L 841.29,2761.71 L 845.48,2758.48 L 849.69,2755.24 L 853.90,2751.98 L 858.12,2748.72 L 862.35,2745.45 L 866.58,2742.17 L 870.83,2738.88 L 875.08,2735.57 L 879.35,2732.26 L 883.62,2728.94 L 887.89,2725.61 L 892.18,2722.26 L 896.48,2718.91 L 900.78,2715.55 L 905.09,2712.17 L 909.40,2708.78 L 913.73,2705.39 L 918.06,2701.98 L 922.40,2698.56 L 926.75,2695.13 L 931.10,2691.69 L 935.47,2688.24 L 939.84,2684.78 L 944.21,2681.31 L 948.60,2677.82 L 952.99,2674.33 L 957.39,2670.83 L 961.80,2667.31 L 966.22,2663.79 L 970.64,2660.26 L 975.08,2656.71 L 979.52,2653.16 L 983.97,2649.59 L 988.42,2646.02 L 992.89,2642.44 L 997.36,2638.84 L 1001.84,2635.24 L 1006.33,2631.63 L 1010.83,2628.00 L 1015.33,2624.37 L 1019.84,2620.73 L 1024.37,2617.08 L 1028.89,2613.42 L 1033.43,2609.74 L 1037.97,2606.06 L 1042.53,2602.37 L 1047.08,2598.67 L 1051.65,2594.96 L 1056.23,2591.24 L 1060.81,2587.51 L 1065.40,2583.77 L 1070.00,2580.02 L 1074.60,2576.26 L 1079.21,2572.49 L 1083.83,2568.71 L 1088.46,2564.92 L 1093.10,2561.12 L 1097.74,2557.31 L 1102.39,2553.49 L 1107.05,2549.66 L 1111.72,2545.82 L 1116.39,2541.97 L 1121.07,2538.11 L 1125.76,2534.24 L 1130.46,2530.36 L 1135.16,2526.46 L 1139.88,2522.56 L 1144.60,2518.65 L 1149.33,2514.73 L 1154.07,2510.79 L 1158.81,2506.85 L 1163.57,2502.90 L 1168.33,2498.93 L 1173.10,2494.96 L 1177.88,2490.98 L 1182.66,2486.98 L 1187.45,2482.98 L 1192.26,2478.96 L 1197.07,2474.93 L 1201.88,2470.90 L 1206.71,2466.85 L 1211.54,2462.79 L 1216.39,2458.72 L 1221.24,2454.64 L 1226.10,2450.55 L 1230.96,2446.45 L 1235.84,2442.34 L 1240.72,2438.22 L 1245.61,2434.09 L 1250.51,2429.94 L 1255.42,2425.79 L 1260.34,2421.62 L 1265.26,2417.45 L 1270.20,2413.26 L 1275.14,2409.06 L 1280.09,2404.85 L 1285.05,2400.63 L 1290.01,2396.40 L 1294.99,2392.16 L 1299.97,2387.91 L 1304.96,2383.64 L 1309.96,2379.37 L 1314.96,2375.08 L 1319.98,2370.78 L 1325.00,2366.47 L 1330.03,2362.15 L 1335.07,2357.82 L 1340.11,2353.48 L 1345.17,2349.13 L 1350.23,2344.77 L 1355.30,2340.39 L 1360.37,2336.01 L 1365.46,2331.61 L 1370.55,2327.21 L 1375.65,2322.79 L 1380.75,2318.36 L 1385.87,2313.93 L 1390.99,2309.48 L 1396.12,2305.02 L 1401.26,2300.54 L 1406.40,2296.06 L 1411.56,2291.57 L 1416.72,2287.06 L 1421.89,2282.55 L 1427.06,2278.02 L 1432.25,2273.49 L 1437.44,2268.94 L 1442.64,2264.38 L 1447.85,2259.81 L 1453.06,2255.22 L 1458.28,2250.63 L 1463.51,2246.02 L 1468.75,2241.41 L 1474.00,2236.78 L 1479.25,2232.14 L 1484.51,2227.48 L 1489.78,2222.82 L 1495.06,2218.14 L 1500.34,2213.46 L 1505.64,2208.76 L 1510.93,2204.05 L 1516.24,2199.32 L 1521.56,2194.59 L 1526.88,2189.84 L 1532.21,2185.09 L 1537.54,2180.32 L 1542.89,2175.54 L 1548.24,2170.75 L 1553.60,2165.95 L 1558.96,2161.14 L 1564.34,2156.31 L 1569.72,2151.48 L 1575.11,2146.63 L 1580.51,2141.78 L 1585.91,2136.91 L 1591.32,2132.04 L 1596.74,2127.15 L 1602.17,2122.25 L 1607.61,2117.34 L 1613.05,2112.43 L 1618.50,2107.50 L 1623.96,2102.56 L 1629.43,2097.61 L 1634.90,2092.65 L 1640.39,2087.69 L 1645.88,2082.71 L 1651.38,2077.72 L 1656.88,2072.72 L 1662.40,2067.71 L 1667.92,2062.69 L 1673.45,2057.66 L 1678.99,2052.62 L 1684.54,2047.57 L 1690.10,2042.51 L 1695.66,2037.43 L 1701.23,2032.35 L 1706.81,2027.26 L 1712.40,2022.15 L 1718.00,2017.04 L 1723.60,2011.91 L 1729.21,2006.78 L 1734.83,2001.63 L 1740.46,1996.47 L 1746.10,1991.30 L 1751.74,1986.12 L 1757.39,1980.93 L 1763.05,1975.73 L 1768.72,1970.52 L 1774.40,1965.30 L 1780.08,1960.06 L 1785.78,1954.81 L 1791.48,1949.56 L 1797.18,1944.29 L 1802.90,1939.01 L 1808.62,1933.72 L 1814.36,1928.42 L 1820.10,1923.11 L 1825.84,1917.79 L 1831.60,1912.45 L 1837.36,1907.11 L 1843.13,1901.76 L 1848.91,1896.39 L 1854.70,1891.02 L 1860.49,1885.63 L 1866.29,1880.24 L 1872.10,1874.83 L 1877.92,1869.42 L 1883.74,1863.99 L 1889.57,1858.55 L 1895.41,1853.11 L 1901.26,1847.65 L 1907.11,1842.18 L 1912.98,1836.71 L 1918.85,1831.22 L 1924.72,1825.72 L 1930.61,1820.22 L 1936.50,1814.70 L 1942.41,1809.17 L 1948.32,1803.63 L 1954.23,1798.09 L 1960.16,1792.53 L 1966.09,1786.96 L 1972.03,1781.38 L 1977.98,1775.79 L 1983.94,1770.19 L 1989.91,1764.58 L 1995.88,1758.96 L 2001.86,1753.33 L 2007.85,1747.69 L 2013.85,1742.04 L 2019.85,1736.37 L 2025.87,1730.70 L 2031.89,1725.01 L 2037.92,1719.32 L 2043.95,1713.61 L 2050.00,1707.89 L 2056.05,1702.16 L 2062.10,1696.42 L 2068.17,1690.67 L 2074.24,1684.91 L 2080.32,1679.14 L 2086.41,1673.35 L 2092.50,1667.56 L 2098.60,1661.75 L 2104.71,1655.94 L 2110.83,1650.11 L 2116.95,1644.27 L 2123.08,1638.42 L 2129.21,1632.56 L 2135.36,1626.69 L 2141.51,1620.80 L 2147.66,1614.91 L 2153.83,1609.00 L 2160.00,1603.09 L 2166.18,1597.16 L 2172.37,1591.23 L 2178.56,1585.28 L 2184.76,1579.32 L 2190.97,1573.35 L 2197.18,1567.37 L 2203.40,1561.38 L 2209.63,1555.38 L 2215.87,1549.37 L 2222.12,1543.35 L 2228.37,1537.31 L 2234.63,1531.27 L 2240.90,1525.22 L 2247.17,1519.15 L 2253.45,1513.08 L 2259.74,1506.99 L 2266.04,1500.90 L 2272.35,1494.79 L 2278.66,1488.68 L 2284.98,1482.55 L 2291.31,1476.41 L 2297.65,1470.26 L 2303.99,1464.10 L 2310.34,1457.93 L 2316.70,1451.75 L 2323.07,1445.56 L 2329.45,1439.36 L 2335.83,1433.14 L 2342.22,1426.92 L 2348.62,1420.69 L 2355.03,1414.44 L 2361.44,1408.18 L 2367.87,1401.92 L 2374.30,1395.64 L 2380.73,1389.35 L 2387.18,1383.05 L 2393.64,1376.74 L 2400.10,1370.41 L 2406.57,1364.08 L 2413.04,1357.74 L 2419.53,1351.38 L 2426.02,1345.01 L 2432.52,1338.64 L 2439.02,1332.25 L 2445.54,1325.85 L 2452.06,1319.44 L 2458.59,1313.02 L 2465.12,1306.58 L 2471.66,1300.14 L 2478.21,1293.68 L 2484.77,1287.22 L 2491.33,1280.74 L 2497.90,1274.25 L 2504.48,1267.75 L 2511.07,1261.24 L 2517.66,1254.72 L 2524.26,1248.19 L 2530.87,1241.65 L 2537.49,1235.10 L 2544.11,1228.53 L 2550.74,1221.96 L 2557.38,1215.37 L 2564.03,1208.78 L 2570.69,1202.17 L 2577.35,1195.55 L 2584.02,1188.93 L 2590.70,1182.29 L 2597.39,1175.64 L 2604.09,1168.98 L 2610.79,1162.32 L 2617.51,1155.64 L 2624.23,1148.95 L 2630.96,1142.25 L 2637.70,1135.55 L 2644.44,1128.83 L 2651.19,1122.10 L 2657.96,1115.36 L 2664.73,1108.61 L 2671.50,1101.86 L 2678.29,1095.09 L 2685.08,1088.31 L 2691.88,1081.52 L 2698.69,1074.72 L 2705.51,1067.91 L 2712.33,1061.09 L 2719.16,1054.26 L 2726.00,1047.42 L 2732.85,1040.57 L 2739.70,1033.71 L 2746.56,1026.84 L 2753.43,1019.96 L 2760.31,1013.06 L 2767.19,1006.16 L 2774.08,999.24 L 2780.98,992.31 L 2787.89,985.38 L 2794.81,978.43 L 2801.73,971.47 L 2808.66,964.50 L 2815.60,957.52 L 2822.55,950.53 L 2829.51,943.53 L 2836.47,936.51 L 2843.44,929.49 L 2850.42,922.45 L 2857.41,915.41 L 2864.40,908.35 L 2871.41,901.29 L 2878.42,894.21 L 2885.44,887.12 L 2892.46,880.03 L 2899.50,872.92 L 2906.54,865.80 L 2913.59,858.68 L 2920.65,851.54 L 2927.71,844.39 L 2934.79,837.23 L 2941.87,830.06 L 2948.95,822.89 L 2956.05,815.70 L 2963.15,808.50 L 2970.26,801.29 L 2977.38,794.07 L 2984.51,786.84 L 2991.64,779.61 L 2998.78,772.36 L 3005.93,765.10 L 3013.09,757.83 L 3020.25,750.55 L 3027.42,743.25 L 3034.60,735.95 L 3041.79,728.64 L 3048.98,721.31 L 3056.19,713.98 L 3063.40,706.63 L 3070.61,699.28 L 3077.84,691.91 L 3085.07,684.53 L 3092.31,677.14 L 3099.56,669.73 L 3106.82,662.32 L 3114.08,654.90 L 3121.36,647.46 L 3128.64,640.01 L 3135.92,632.56 L 3143.22,625.09 L 3150.52,617.61 L 3157.83,610.12 L 3165.15,602.61 L 3172.48,595.10 L 3179.82,587.58 L 3187.16,580.04 L 3194.51,572.50 L 3201.87,564.94 L 3209.24,557.37 L 3216.61,549.80 L 3223.99,542.21 L 3231.38,534.61 L 3238.78,527.00 L 3246.19,519.38 L 3253.60,511.75 L 3261.02,504.11 L 3268.45,496.46 L 3275.89,488.80 L 3283.34,481.13 L 3290.79,473.44 L 3298.26,465.75 L 3305.73,458.05 L 3313.20,450.33 L 3320.69,442.61 L 3328.19,434.88 L 3335.69,427.13 L 3343.20,419.38 L 3350.72,411.61 L 3358.24,403.84 L 3365.78,396.05 L 3373.32,388.25 L 3380.87,380.45 L 3388.43,372.63 L 3396.00,364.80 L 3403.58,356.96 L 3411.16,349.11 L 3418.75,341.25 L 3426.35,333.38 L 3433.96,325.50 L 3441.57,317.61 L 3449.19,309.71 L 3456.82,301.79 L 3464.46,293.87 L 3472.10,285.94 L 3479.76,277.99 L 3487.42,270.04 L 3495.09,262.07 L 3502.76,254.10 L 3510.44,246.11 L 3518.13,238.11 L 3525.83,230.11 L 3533.53,222.09 L 3541.25,214.06 L 3548.96,206.02 L 3556.69,197.97 L 3564.42,189.92 L 3572.16,181.85 L 3579.91,173.77 L 3587.66,165.68 L 3595.42,157.58 L 3603.19,149.47 L 3610.96,141.35 L 3618.75,133.22 L 3626.54,125.08 L 3634.33,116.93 L 3642.13,108.77 L 3649.94,100.60 L 3657.76,92.42 L 3665.59,84.23 L 3673.42,76.02 L 3681.26,67.81 L 3689.10,59.58 L 3696.96,51.35 L 3704.82,43.10 L 3712.69,34.84 L 3720.56,26.57 L 3728.45,18.29 L 3736.34,10.00" stroke="black" stroke-width="2" fill="none" stroke-linecap="round" stroke-linejoin="round"/>
</svg>
